<svg width="161" height="161" viewBox="0 0 161 161" fill="none" xmlns="http://www.w3.org/2000/svg">
<path d="M85.6535 77H40.3465C39.6032 77 39 76.776 39 76.5C39 76.224 39.6032 76 40.3465 76H85.6535C86.3968 76 87 76.224 87 76.5C87 76.776 86.3968 77 85.6535 77Z" fill="#B9B9B9"/>
<path d="M85.6535 77H40.3465C39.6032 77 39 76.776 39 76.5C39 76.224 39.6032 76 40.3465 76H85.6535C86.3968 76 87 76.224 87 76.5C87 76.776 86.3968 77 85.6535 77Z" stroke="white"/>
<path d="M68.1684 81.8956H40.1868C39.7278 81.8956 39.3552 81.6268 39.3552 81.2956C39.3552 80.9644 39.7278 80.6956 40.1868 80.6956H68.1684C68.6274 80.6956 69 80.9644 69 81.2956C69 81.6268 68.6274 81.8956 68.1684 81.8956Z" fill="#B9B9B9"/>
<path d="M68.1684 81.8956H40.1868C39.7278 81.8956 39.3552 81.6268 39.3552 81.2956C39.3552 80.9644 39.7278 80.6956 40.1868 80.6956H68.1684C68.6274 80.6956 69 80.9644 69 81.2956C69 81.6268 68.6274 81.8956 68.1684 81.8956Z" stroke="white"/>
<path d="M51.45 87.046H39.9552C39.624 87.046 39.3552 86.7772 39.3552 86.446C39.3552 86.1148 39.624 85.846 39.9552 85.846H51.45C51.7812 85.846 52.05 86.1148 52.05 86.446C52.05 86.7772 51.7812 87.046 51.45 87.046Z" fill="#B9B9B9"/>
<path d="M51.45 87.046H39.9552C39.624 87.046 39.3552 86.7772 39.3552 86.446C39.3552 86.1148 39.624 85.846 39.9552 85.846H51.45C51.7812 85.846 52.05 86.1148 52.05 86.446C52.05 86.7772 51.7812 87.046 51.45 87.046Z" stroke="white"/>
<path d="M44.0496 71.8H39.9552C39.624 71.8 39.3552 71.5312 39.3552 71.2C39.3552 70.8688 39.624 70.6 39.9552 70.6H44.0496C44.3808 70.6 44.6496 70.8688 44.6496 71.2C44.6496 71.5312 44.3808 71.8 44.0496 71.8Z" fill="#B9B9B9"/>
<path d="M44.0496 71.8H39.9552C39.624 71.8 39.3552 71.5312 39.3552 71.2C39.3552 70.8688 39.624 70.6 39.9552 70.6H44.0496C44.3808 70.6 44.6496 70.8688 44.6496 71.2C44.6496 71.5312 44.3808 71.8 44.0496 71.8Z" stroke="white"/>
<path d="M51.9001 98.7196H39.7033C39.3721 98.7196 39.1033 98.4508 39.1033 98.1196C39.1033 97.7884 39.3721 97.5196 39.7033 97.5196H51.9001C52.2313 97.5196 52.5001 97.7884 52.5001 98.1196C52.5001 98.4508 52.2313 98.7196 51.9001 98.7196Z" fill="#B9B9B9"/>
<path d="M51.9001 98.7196H39.7033C39.3721 98.7196 39.1033 98.4508 39.1033 98.1196C39.1033 97.7884 39.3721 97.5196 39.7033 97.5196H51.9001C52.2313 97.5196 52.5001 97.7884 52.5001 98.1196C52.5001 98.4508 52.2313 98.7196 51.9001 98.7196Z" stroke="white"/>
<path d="M43.7977 93.6232H39.7033C39.3721 93.6232 39.1033 93.3544 39.1033 93.0232C39.1033 92.692 39.3721 92.4232 39.7033 92.4232H43.7977C44.1289 92.4232 44.3977 92.692 44.3977 93.0232C44.3977 93.3544 44.1289 93.6232 43.7977 93.6232Z" fill="#B9B9B9"/>
<path d="M43.7977 93.6232H39.7033C39.3721 93.6232 39.1033 93.3544 39.1033 93.0232C39.1033 92.692 39.3721 92.4232 39.7033 92.4232H43.7977C44.1289 92.4232 44.3977 92.692 44.3977 93.0232C44.3977 93.3544 44.1289 93.6232 43.7977 93.6232Z" stroke="white"/>
<path d="M31.65 122.2V122.35H31.8H130.2H130.35V122.2V47.8V47.65H130.2H31.8H31.65V47.8V122.2ZM132.45 124.45H29.55V45.55H132.45V124.45Z" fill="#B9B9B9" stroke="white" stroke-width="0.3"/>
<path d="M31.65 45.4V45.55H31.8H130.2H130.35V45.4V36.7552C130.35 36.592 130.278 36.4408 130.173 36.3118C130.068 36.1825 129.923 36.0669 129.757 35.9705C129.424 35.7779 128.986 35.65 128.55 35.65H33.45C33.0142 35.65 32.5759 35.7779 32.2434 35.9705C32.0769 36.0669 31.9317 36.1825 31.8265 36.3118C31.7216 36.4408 31.65 36.592 31.65 36.7552V45.4ZM132.45 47.65H29.55V36.7552C29.55 35.7752 30.0456 34.9776 30.7849 34.4202C31.5264 33.8613 32.5067 33.55 33.45 33.55H128.55C129.493 33.55 130.474 33.8613 131.215 34.4202C131.954 34.9776 132.45 35.7752 132.45 36.7552V47.65Z" fill="#B9B9B9" stroke="white" stroke-width="0.3"/>
<path d="M39.75 40.3504C39.75 41.2895 38.9887 42.0508 38.0496 42.0508C37.1105 42.0508 36.3492 41.2895 36.3492 40.3504C36.3492 39.4113 37.1105 38.65 38.0496 38.65C38.9887 38.65 39.75 39.4113 39.75 40.3504Z" fill="#B9B9B9" stroke="white" stroke-width="0.3"/>
<path d="M45.75 40.3504C45.75 41.2895 44.9887 42.0508 44.0496 42.0508C43.1105 42.0508 42.3492 41.2895 42.3492 40.3504C42.3492 39.4113 43.1105 38.65 44.0496 38.65C44.9887 38.65 45.75 39.4113 45.75 40.3504Z" fill="#B9B9B9" stroke="white" stroke-width="0.3"/>
<path d="M51.75 40.3504C51.75 41.2895 50.9887 42.0508 50.0496 42.0508C49.1105 42.0508 48.3492 41.2895 48.3492 40.3504C48.3492 39.4113 49.1105 38.65 50.0496 38.65C50.9887 38.65 51.75 39.4113 51.75 40.3504Z" fill="#B9B9B9" stroke="white" stroke-width="0.3"/>
<path d="M45.0528 57.0616L40.9752 59.3116L45.0528 61.5616V63.1792L38.3868 59.5156V59.0584L45.0528 55.444V57.0616Z" fill="#3173B5"/>
<path d="M45.0528 57.0616L40.9752 59.3116L45.0528 61.5616V63.1792L38.3868 59.5156V59.0584L45.0528 55.444V57.0616Z" stroke="white"/>
<path d="M52.3163 65.0068H50.9447L54.7979 54.4324H56.1695L52.3163 65.0068Z" fill="#3173B5"/>
<path d="M52.3163 65.0068H50.9447L54.7979 54.4324H56.1695L52.3163 65.0068Z" stroke="white"/>
<path d="M62.4552 55.444L69.1212 59.0584V59.5156L62.4552 63.1792V61.5616L66.5328 59.3116L62.4552 57.0616V55.444Z" fill="#3173B5"/>
<path d="M62.4552 55.444L69.1212 59.0584V59.5156L62.4552 63.1792V61.5616L66.5328 59.3116L62.4552 57.0616V55.444Z" stroke="white"/>
</svg>
