<?xml version="1.0" encoding="UTF-8"?>
<svg width="116px" height="85px" viewBox="0 0 116 85" version="1.1" xmlns="http://www.w3.org/2000/svg" xmlns:xlink="http://www.w3.org/1999/xlink">
    <!-- Generator: Sketch 59.1 (86144) - https://sketch.com -->
    <title>Impact</title>
    <desc>Created with Sketch.</desc>
    <g id="Icons" stroke="none" stroke-width="1" fill="none" fill-rule="evenodd">
        <g id="GSLaunch_Icons_0124" transform="translate(-822.000000, -627.000000)">
            <g id="Impact" transform="translate(823.000000, 628.000000)">
                <line x1="22" y1="74" x2="7" y2="74" id="Path-10-Copy-18" stroke="#CBCBCD"></line>
                <line x1="22" y1="64" x2="7" y2="64" id="Path-10-Copy-38" stroke="#CBCBCD"></line>
                <line x1="44" y1="74" x2="29" y2="74" id="Path-10-Copy-20" stroke="#CBCBCD"></line>
                <line x1="44" y1="64" x2="29" y2="64" id="Path-10-Copy-39" stroke="#CBCBCD"></line>
                <line x1="65" y1="74" x2="50" y2="74" id="Path-10-Copy-22" stroke="#CBCBCD"></line>
                <line x1="65" y1="64" x2="50" y2="64" id="Path-10-Copy-40" stroke="#CBCBCD"></line>
                <line x1="65" y1="47" x2="50" y2="47" id="Path-10-Copy-28" stroke="#CBCBCD"></line>
                <line x1="86" y1="74" x2="71" y2="74" id="Path-10-Copy-24" stroke="#CBCBCD"></line>
                <line x1="86" y1="64" x2="71" y2="64" id="Path-10-Copy-41" stroke="#CBCBCD"></line>
                <line x1="86" y1="47" x2="71" y2="47" id="Path-10-Copy-29" stroke="#CBCBCD"></line>
                <line x1="86" y1="37" x2="71" y2="37" id="Path-10-Copy-35" stroke="#CBCBCD"></line>
                <line x1="107" y1="74" x2="92" y2="74" id="Path-10-Copy-26" stroke="#CBCBCD"></line>
                <line x1="107" y1="64" x2="92" y2="64" id="Path-10-Copy-42" stroke="#CBCBCD"></line>
                <line x1="107" y1="47" x2="92" y2="47" id="Path-10-Copy-30" stroke="#CBCBCD"></line>
                <line x1="107" y1="37" x2="92" y2="37" id="Path-10-Copy-36" stroke="#CBCBCD"></line>
                <line x1="107" y1="28" x2="92" y2="28" id="Path-10-Copy-37" stroke="#CBCBCD"></line>
                <polyline id="Path-10-Copy-43" stroke="#007FC3" points="114 12 114 0 101 0"></polyline>
                <line x1="44" y1="56" x2="29" y2="56" id="Path-10-Copy-31" stroke="#CBCBCD"></line>
                <line x1="65" y1="56" x2="50" y2="56" id="Path-10-Copy-32" stroke="#CBCBCD"></line>
                <line x1="86" y1="56" x2="71" y2="56" id="Path-10-Copy-33" stroke="#CBCBCD"></line>
                <line x1="107" y1="56" x2="92" y2="56" id="Path-10-Copy-34" stroke="#CBCBCD"></line>
                <line x1="114.5" y1="21" x2="114.5" y2="84" id="Path-10-Copy-16" stroke="#CBCBCD"></line>
                <polyline id="Path-10-Copy-17" stroke="#CBCBCD" points="92 2.10075013e-13 0 2.10075013e-13 0 35"></polyline>
                <path d="M0,45 C45.6035195,44.1688331 83.6035195,29.1688331 114,0" id="Path-24" stroke="#007FC3"></path>
                <line x1="22" y1="83" x2="7" y2="83" id="Path-10-Copy-19" stroke="#CBCBCD"></line>
                <line x1="44" y1="83" x2="29" y2="83" id="Path-10-Copy-21" stroke="#CBCBCD"></line>
                <line x1="65" y1="83" x2="50" y2="83" id="Path-10-Copy-23" stroke="#CBCBCD"></line>
                <line x1="86" y1="83" x2="71" y2="83" id="Path-10-Copy-25" stroke="#CBCBCD"></line>
                <line x1="107" y1="83" x2="92" y2="83" id="Path-10-Copy-27" stroke="#CBCBCD"></line>
                <line x1="0.5" y1="53" x2="0.5" y2="84" id="Path-10-Copy-13" stroke="#CBCBCD"></line>
            </g>
        </g>
    </g>
</svg>