<?xml version="1.0" encoding="UTF-8"?>
<svg width="121px" height="122px" viewBox="0 0 121 122" version="1.1" xmlns="http://www.w3.org/2000/svg" xmlns:xlink="http://www.w3.org/1999/xlink">
    <!-- Generator: Sketch 59.1 (86144) - https://sketch.com -->
    <title>Opportunity</title>
    <desc>Created with Sketch.</desc>
    <g id="Icons" stroke="none" stroke-width="1" fill="none" fill-rule="evenodd">
        <g id="GSLaunch_Icons_0124" transform="translate(-261.000000, -204.000000)">
            <g id="Opportunity" transform="translate(262.000000, 205.000000)">
                <path d="M10.1731716,84.4752319 C7.69071313,79.5999101 5.92078944,74.3033867 5,68.721804 M113.13071,68.721804 C111.711527,77.3245144 108.275222,85.2500649 103.321925,92 M5.18399621,49.817825 C9.32145807,27.4820479 27.0963062,9.9103487 49.5813793,6 M114,49.817825 C109.862538,27.4820479 92.08769,9.9103487 69.6026169,6" id="Shape" stroke="#CBCBCD"></path>
                <circle id="Oval-Copy-17" stroke="#007FC3" cx="60" cy="5" r="5"></circle>
                <circle id="Oval-Copy-18" stroke="#007FC3" cx="5" cy="59" r="5"></circle>
                <circle id="Oval-Copy-19" stroke="#007FC3" transform="translate(114.000000, 59.000000) rotate(-360.000000) translate(-114.000000, -59.000000) " cx="114" cy="59" r="5"></circle>
                <polyline id="Path-11" stroke="#CBCBCD" points="12 89 30 89 30 112"></polyline>
                <path d="M32,111.735069 L38.2857143,111.735069 L59.2380952,120 L63.4285714,120 L93.8095238,103.470138 C96.6031746,102.09265 98,100.715162 98,99.3376731 C98,97.2714404 96.952381,94.1720914 92.7619048,95.2052077 C89.968254,95.8939519 83.6825397,97.6158125 73.9047619,100.370789" id="Path-12" stroke="#CBCBCD"></path>
                <path d="M32,91 L43.55,91 L56.15,96.3125 L69.8,96.3125 C72.6,96.3125 74,97.375 74,99.5 C74,102.6875 71.9,103.75 68.75,103.75 C65.6,103.75 54.05,103.75 54.05,103.75 C54.05,103.75 50.9,103.75 50.9,108" id="Path-13" stroke="#CBCBCD"></path>
                <line x1="24" y1="109.5" x2="27" y2="109.5" id="Path-14" stroke="#CBCBCD"></line>
                <path d="M67.3357488,48.5008605 C67.6496884,44.599997 66.1861142,42.0018317 62.9450262,40.7063645 C58.0833941,38.7631637 53.9658378,41.1754473 52.4809791,43.754507 C50.9961204,46.3335667 50.9961204,48.4282149 52.4809791,50.8447795 C53.9658378,53.2613441 58.5688141,55.6077531 60.8875349,57.2986005 C63.2062558,58.9894479 66.9080581,60.3322147 67.8037248,64.4655962 C68.6993916,68.5989777 66.3329149,71.432381 64.6771048,72.6376272 C63.0212947,73.8428734 58.9540291,74.9786336 55.1965311,72.6376272 C52.6915325,71.0769562 51.2926888,68.6914736 51,65.4811793" id="Path-21" stroke="#007FC3"></path>
                <line x1="45" y1="58.5" x2="41" y2="58.5" id="Path-22-Copy-2" stroke="#007FC3"></line>
                <line x1="79" y1="58.5" x2="75" y2="58.5" id="Path-22-Copy-3" stroke="#007FC3"></line>
                <line x1="59.5" y1="74" x2="59.5" y2="78" id="Path-22" stroke="#007FC3"></line>
                <line x1="59.5" y1="36" x2="59.5" y2="40" id="Path-22-Copy" stroke="#007FC3"></line>
            </g>
        </g>
    </g>
</svg>